<svg xmlns="http://www.w3.org/2000/svg" width="260" height="560" viewBox="0 0 260 560" fill="none">
  <defs>
    <filter id="blurWide" x="-80%" y="-30%" width="260%" height="180%">
      <feGaussianBlur stdDeviation="12"/>
    </filter>
    <filter id="blurMid" x="-60%" y="-20%" width="220%" height="160%">
      <feGaussianBlur stdDeviation="5"/>
    </filter>
    <filter id="blurCore" x="-60%" y="-20%" width="220%" height="160%">
      <feGaussianBlur stdDeviation="1.2"/>
    </filter>
    <linearGradient id="gradCore" x1="0" y1="0" x2="0" y2="560" gradientUnits="userSpaceOnUse">
      <stop offset="0%" stop-color="#ffffff"/>
      <stop offset="18%" stop-color="#a8e9ff"/>
      <stop offset="52%" stop-color="#2fd3ff"/>
      <stop offset="78%" stop-color="#6ba6ff"/>
      <stop offset="100%" stop-color="#a8e9ff"/>
    </linearGradient>
  </defs>
  <g opacity=".90" filter="url(#blurWide)">
    <polyline points="141.1,15.6 114.4,79.8 85.7,144.8 109.1,232.6 139.7,284.7 138.3,343.5 107.2,400.8 89.5,472.0 102.7,520.5 94.5,556.0" stroke="#2fd3ff" stroke-width="18" stroke-linecap="round" stroke-linejoin="round"/>
    <polyline points="89.5,472.0 100.2,495.0 109.2,537.0 96.1,558.0 82.6,558.0" stroke="#6ba6ff" stroke-width="12" stroke-linecap="round" stroke-linejoin="round"/>
    <polyline points="109.1,232.6 116.0,278.1 110.8,324.1 105.6,351.0 101.5,390.1 105.1,413.1 108.6,453.4" stroke="#6ba6ff" stroke-width="12" stroke-linecap="round" stroke-linejoin="round"/>
    <polyline points="107.2,400.8 118.3,432.0 127.3,465.8 113.6,500.9 104.0,527.7" stroke="#6ba6ff" stroke-width="12" stroke-linecap="round" stroke-linejoin="round"/>
    <polyline points="139.7,284.7 154.0,309.2 136.6,346.1 147.0,376.1" stroke="#6ba6ff" stroke-width="12" stroke-linecap="round" stroke-linejoin="round"/>
    <polyline points="89.5,472.0 102.8,503.9 91.3,542.1 101.5,558.0 112.4,558.0" stroke="#6ba6ff" stroke-width="12" stroke-linecap="round" stroke-linejoin="round"/>
  </g>
  <g opacity=".98" filter="url(#blurMid)">
    <polyline points="141.1,15.6 114.4,79.8 85.7,144.8 109.1,232.6 139.7,284.7 138.3,343.5 107.2,400.8 89.5,472.0 102.7,520.5 94.5,556.0" stroke="#6ba6ff" stroke-width="9" stroke-linecap="round" stroke-linejoin="round"/>
    <polyline points="89.5,472.0 100.2,495.0 109.2,537.0 96.1,558.0 82.6,558.0" stroke="#2fd3ff" stroke-width="5" stroke-linecap="round" stroke-linejoin="round"/>
    <polyline points="109.1,232.6 116.0,278.1 110.8,324.1 105.6,351.0 101.5,390.1 105.1,413.1 108.6,453.4" stroke="#2fd3ff" stroke-width="5" stroke-linecap="round" stroke-linejoin="round"/>
    <polyline points="107.2,400.8 118.3,432.0 127.3,465.8 113.6,500.9 104.0,527.7" stroke="#2fd3ff" stroke-width="5" stroke-linecap="round" stroke-linejoin="round"/>
    <polyline points="139.7,284.7 154.0,309.2 136.6,346.1 147.0,376.1" stroke="#2fd3ff" stroke-width="5" stroke-linecap="round" stroke-linejoin="round"/>
    <polyline points="89.5,472.0 102.8,503.9 91.3,542.1 101.5,558.0 112.4,558.0" stroke="#2fd3ff" stroke-width="5" stroke-linecap="round" stroke-linejoin="round"/>
  </g>
  <g opacity="1" filter="url(#blurCore)">
    <polyline points="141.1,15.6 114.4,79.8 85.7,144.8 109.1,232.6 139.7,284.7 138.3,343.5 107.2,400.8 89.5,472.0 102.7,520.5 94.5,556.0" stroke="url(#gradCore)" stroke-width="3.6" stroke-linecap="round" stroke-linejoin="round"/>
    <polyline points="89.5,472.0 100.2,495.0 109.2,537.0 96.1,558.0 82.6,558.0" stroke="#ffffff" stroke-width="1.8" stroke-linecap="round" stroke-linejoin="round"/>
    <polyline points="109.1,232.6 116.0,278.1 110.8,324.1 105.6,351.0 101.5,390.1 105.1,413.1 108.6,453.4" stroke="#ffffff" stroke-width="1.8" stroke-linecap="round" stroke-linejoin="round"/>
    <polyline points="107.2,400.8 118.3,432.0 127.3,465.8 113.6,500.9 104.0,527.7" stroke="#ffffff" stroke-width="1.8" stroke-linecap="round" stroke-linejoin="round"/>
    <polyline points="139.7,284.7 154.0,309.2 136.6,346.1 147.0,376.1" stroke="#ffffff" stroke-width="1.8" stroke-linecap="round" stroke-linejoin="round"/>
    <polyline points="89.5,472.0 102.8,503.9 91.3,542.1 101.5,558.0 112.4,558.0" stroke="#ffffff" stroke-width="1.8" stroke-linecap="round" stroke-linejoin="round"/>
  </g>
</svg>
